<?xml version="1.0" standalone="no"?>
<!DOCTYPE svg PUBLIC "-//W3C//DTD SVG 20010904//EN"
 "http://www.w3.org/TR/2001/REC-SVG-20010904/DTD/svg10.dtd">
<svg version="1.0" xmlns="http://www.w3.org/2000/svg"
 width="300.000000pt" height="269.000000pt" viewBox="0 0 300.000000 269.000000"
 preserveAspectRatio="xMidYMid meet">

<g transform="translate(0.000000,269.000000) scale(0.100000,-0.100000)"
fill="currentColor" stroke="none">
<path d="M1465 2389 c-49 -11 -112 -23 -138 -26 -27 -3 -44 -9 -37 -13 7 -4 0
-9 -18 -13 -43 -9 -237 -104 -285 -141 -23 -17 -54 -39 -68 -48 -14 -9 -44
-33 -65 -53 -21 -21 -49 -41 -61 -46 -13 -5 -23 -14 -23 -20 0 -12 38 9 75 41
35 31 198 136 276 178 77 43 225 96 240 86 5 -3 92 -5 194 -5 164 0 198 -3
293 -25 113 -26 229 -68 324 -115 64 -32 72 -35 62 -16 -4 7 -3 9 2 4 5 -5 9
-12 9 -15 1 -4 25 -32 55 -63 57 -59 78 -102 120 -249 16 -55 23 -113 27 -220
3 -80 3 -143 0 -140 -2 3 -29 53 -59 111 -57 110 -153 246 -170 241 -5 -1 -6
3 -2 9 8 13 -153 171 -198 195 -14 7 -38 28 -52 46 -14 18 -28 29 -32 25 -4
-4 44 -56 107 -116 181 -172 281 -315 360 -515 l31 -80 -17 -60 c-70 -249
-246 -519 -448 -687 -62 -52 -121 -75 -283 -109 -49 -10 -78 -18 -64 -19 25
-1 177 31 215 45 46 16 -7 -20 -96 -67 -52 -26 -87 -49 -79 -49 13 0 13 -1 0
-10 -24 -15 -2 -12 31 5 17 10 27 20 23 27 -5 8 -2 9 9 5 12 -4 48 15 110 56
50 34 108 69 127 77 141 56 318 169 430 276 44 42 80 74 80 71 0 -3 -5 -30
-11 -59 -18 -90 -49 -162 -90 -214 -21 -27 -48 -63 -59 -80 -42 -65 -240 -175
-383 -214 -115 -32 -397 -46 -397 -21 0 5 21 16 46 26 25 9 44 19 42 21 -2 2
-34 -8 -71 -21 -72 -27 -91 -30 -83 -16 3 4 26 14 51 21 25 7 44 15 41 17 -2
2 -28 -3 -57 -11 -75 -23 -105 -20 -222 18 -90 30 -287 119 -287 130 0 2 24
-2 53 -10 28 -7 59 -13 67 -13 8 0 -16 9 -53 19 -100 27 -125 38 -200 93 -83
60 -199 184 -268 286 -29 42 -57 81 -62 86 -14 14 0 -10 36 -63 44 -66 25 -62
-23 5 -66 92 -151 272 -156 329 -4 49 -4 48 24 -31 29 -80 98 -225 107 -225 3
0 -8 26 -24 59 -17 32 -46 106 -66 164 l-37 105 22 81 c12 45 45 128 74 185
28 57 47 102 42 99 -14 -9 -104 -204 -123 -267 -15 -50 -19 -55 -24 -35 -4 13
-7 65 -8 114 -1 80 2 97 28 152 46 97 106 179 205 283 85 88 87 91 26 39 -76
-66 -190 -210 -228 -291 -15 -31 -30 -57 -34 -57 -23 -2 27 188 75 284 46 93
58 110 134 187 96 99 300 187 478 208 l80 9 -84 -4 c-94 -5 -101 0 -20 14 l54
10 -66 -5 c-74 -5 -139 -25 -250 -76 -204 -95 -377 -299 -436 -513 -25 -95
-31 -467 -7 -571 9 -44 20 -124 24 -179 18 -248 138 -460 333 -589 101 -66
187 -101 302 -121 116 -20 180 -19 319 5 107 18 121 19 179 5 265 -64 588 10
759 173 147 139 236 290 265 445 9 47 34 123 59 178 24 52 55 142 70 200 22
87 25 116 19 179 -18 206 -60 324 -151 432 -27 31 -78 92 -114 135 -133 159
-169 192 -265 239 -136 67 -220 85 -410 90 -135 3 -174 1 -250 -17z m444 -24
c107 -29 228 -89 284 -141 21 -20 37 -38 34 -40 -2 -2 -42 13 -88 34 -202 93
-356 127 -576 126 -90 0 -163 4 -163 8 0 5 10 6 21 3 12 -4 24 -2 28 3 10 16
120 29 251 31 94 1 132 -4 209 -24z m-952 -21 c-3 -3 -12 -4 -19 -1 -8 3 -5 6
6 6 11 1 17 -2 13 -5z m-40 -10 c-3 -3 -12 -4 -19 -1 -8 3 -5 6 6 6 11 1 17
-2 13 -5z m1345 -134 c48 -42 94 -98 86 -105 -2 -3 -42 34 -89 81 -85 87 -83
101 3 24z m187 -264 c48 -150 63 -328 40 -464 -18 -100 -30 -55 -23 83 9 176
-19 321 -93 470 l-25 50 41 -39 c29 -28 46 -57 60 -100z m114 -124 c47 -89 65
-157 75 -277 10 -116 0 -171 -53 -311 -54 -138 -60 -143 -69 -48 -4 43 -12
106 -19 139 -10 51 -9 72 6 145 29 138 16 305 -39 476 -11 38 65 -58 99 -124z
m-2162 91 c-12 -20 -14 -14 -5 12 4 9 9 14 11 11 3 -2 0 -13 -6 -23z m-37
-123 c-19 -88 -19 -260 -1 -339 8 -36 11 -76 7 -90 l-6 -26 -7 25 c-4 14 -9
61 -13 105 -3 44 -11 90 -17 103 -8 17 -8 45 1 110 12 79 40 188 47 180 2 -2
-3 -32 -11 -68z m2023 -207 c30 -62 53 -118 51 -125 -3 -7 -17 19 -32 58 -15
38 -45 103 -67 144 -22 41 -32 66 -23 55 9 -11 41 -71 71 -132z m82 -200 c1
-7 -3 -13 -8 -13 -10 0 -21 47 -12 55 6 6 19 -21 20 -42z m-2116 -138 l-7 -60
-13 65 c-6 36 -12 90 -12 120 l1 55 19 -60 c14 -45 17 -74 12 -120z m2093 70
c-9 -49 -114 -250 -171 -328 -70 -96 -82 -118 -45 -77 70 76 219 334 220 381
0 9 5 7 11 -4 6 -10 13 -72 16 -136 l6 -118 -55 -64 c-101 -120 -233 -216
-400 -295 l-73 -34 50 42 c81 69 195 181 195 191 0 6 -10 2 -21 -9 -12 -10 4
15 35 56 67 87 164 278 197 385 17 55 26 70 32 59 5 -9 6 -31 3 -49z m47 -60
c9 -55 12 -111 8 -145 -6 -50 -7 -45 -14 60 -4 63 -10 131 -13 150 -4 19 -4
33 -1 30 3 -3 12 -46 20 -95z m-2030 -178 c35 -60 142 -203 159 -212 7 -5 2 4
-11 18 -14 15 -22 29 -19 32 3 3 18 -11 33 -31 16 -21 23 -34 17 -30 -7 4 -12
3 -12 -1 0 -11 76 -84 163 -156 38 -32 65 -57 62 -57 -16 0 -146 78 -205 123
-143 110 -223 209 -269 333 -18 51 -21 72 -16 118 l7 57 33 -75 c18 -41 44
-95 58 -119z m55 -219 c85 -90 160 -143 297 -210 61 -30 145 -78 188 -108 43
-29 128 -75 190 -101 132 -57 127 -64 -46 -56 -222 10 -347 51 -488 157 -92
71 -135 120 -193 220 -46 79 -79 171 -90 255 l-7 50 42 -69 c23 -37 71 -100
107 -138z m-79 -88 c11 -24 11 -24 -3 -6 -9 11 -16 24 -16 30 0 12 5 7 19 -24z
m84 -122 c155 -197 430 -304 719 -278 59 5 116 6 125 3 58 -22 -226 -41 -361
-24 -50 6 -122 23 -160 38 -85 32 -217 116 -267 169 -46 49 -129 165 -128 179
0 5 8 -1 17 -15 9 -13 34 -46 55 -72z m1681 -149 c-40 -45 -223 -120 -352
-145 -90 -17 -248 -18 -344 -2 -109 18 -51 30 81 17 203 -20 391 16 541 105
85 50 101 55 74 25z m-504 -19 c-8 -5 -19 -10 -25 -10 -5 0 -3 5 5 10 8 5 20
10 25 10 6 0 3 -5 -5 -10z m-445 -41 c44 -16 89 -29 100 -29 14 0 16 -3 8 -11
-13 -13 -75 6 -168 52 -65 32 -61 31 60 -12z m177 -60 c-15 -6 -30 -5 -40 1
-13 7 -8 9 23 9 35 0 37 -1 17 -10z"/>
<path d="M1101 2386 c2 -2 60 -6 129 -8 79 -4 105 -3 70 2 -56 8 -207 13 -199
6z"/>
<path d="M1158 2363 c12 -2 30 -2 40 0 9 3 -1 5 -23 4 -22 0 -30 -2 -17 -4z"/>
<path d="M1556 2311 c-3 -5 0 -11 7 -14 8 -3 14 1 14 9 0 16 -13 19 -21 5z"/>
<path d="M1677 2269 c7 -7 15 -10 18 -7 3 3 -2 9 -12 12 -14 6 -15 5 -6 -5z"/>
<path d="M759 2119 l-24 -20 28 17 c15 9 27 18 27 20 0 8 -8 4 -31 -17z"/>
<path d="M709 2083 c-13 -16 -12 -17 4 -4 16 13 21 21 13 21 -2 0 -10 -8 -17
-17z"/>
<path d="M1158 1873 c-19 -54 -17 -288 2 -328 15 -29 18 -30 89 -33 42 -2 78
2 86 8 7 6 16 32 19 58 13 91 17 102 37 102 17 0 19 -8 19 -70 0 -40 -4 -70
-10 -70 -5 0 -10 -25 -10 -55 0 -30 5 -55 10 -55 6 0 10 -20 10 -44 0 -40 -4
-47 -54 -90 -47 -40 -60 -46 -100 -46 -24 0 -48 -4 -51 -10 -4 -7 72 -10 220
-10 148 0 224 3 220 10 -3 6 -28 10 -54 10 -43 0 -55 5 -105 46 -51 42 -56 50
-56 86 0 25 5 41 15 44 11 5 15 21 15 60 0 41 -4 54 -15 54 -12 0 -15 14 -15
70 0 66 1 70 23 70 20 0 24 -7 35 -76 6 -41 14 -79 17 -85 4 -5 42 -9 85 -9
95 0 94 -1 111 128 10 70 10 106 0 162 -18 110 -18 110 -111 110 -43 0 -81 -4
-84 -9 -3 -4 -11 -38 -18 -75 l-13 -66 -52 0 -52 0 -11 58 c-19 92 -19 92
-110 92 l-78 0 -14 -37z m167 7 c4 -6 -22 -10 -70 -10 -48 0 -74 4 -70 10 3 6
35 10 70 10 35 0 67 -4 70 -10z m335 0 c0 -6 -30 -10 -70 -10 -40 0 -70 4 -70
10 0 6 30 10 70 10 40 0 70 -4 70 -10z m-460 -65 c0 -19 -5 -35 -11 -35 -6 0
-9 -12 -7 -27 2 -22 8 -28 28 -28 19 0 26 6 28 24 2 13 -2 27 -8 31 -8 5 -10
19 -5 39 5 26 11 32 28 29 26 -4 34 -40 17 -74 -7 -12 -10 -30 -7 -38 8 -20
41 -21 57 -1 10 12 9 20 -4 40 -20 31 -21 75 -1 75 8 0 18 -12 22 -27 10 -35
10 -179 0 -215 -7 -28 -9 -28 -86 -28 l-79 0 -8 66 c-6 64 0 176 12 195 12 20
24 7 24 -26z m340 4 c0 -17 -7 -37 -15 -45 -19 -20 -3 -54 26 -54 26 0 35 25
19 54 -19 37 -10 71 20 71 30 0 39 -34 20 -71 -16 -29 -7 -54 19 -54 29 0 45
34 26 54 -16 16 -21 76 -6 76 24 0 35 -36 35 -123 0 -51 -3 -104 -7 -119 -7
-28 -9 -28 -86 -28 l-80 0 -7 56 c-7 61 -1 184 10 203 13 21 26 11 26 -20z
m-320 -69 c0 -5 -4 -10 -10 -10 -5 0 -10 5 -10 10 0 6 5 10 10 10 6 0 10 -4
10 -10z m80 0 c0 -5 -2 -10 -4 -10 -3 0 -8 5 -11 10 -3 6 -1 10 4 10 6 0 11
-4 11 -10z m260 6 c0 -3 -4 -8 -10 -11 -5 -3 -10 -1 -10 4 0 6 5 11 10 11 6 0
10 -2 10 -4z m80 -6 c0 -5 -4 -10 -10 -10 -5 0 -10 5 -10 10 0 6 5 10 10 10 6
0 10 -4 10 -10z m-230 -30 c0 -13 -7 -20 -20 -20 -13 0 -20 7 -20 20 0 13 7
20 20 20 13 0 20 -7 20 -20z m60 -1 c0 -25 -33 -22 -38 4 -2 12 3 17 17 17 15
0 21 -6 21 -21z m-147 -174 c-4 -15 -135 -13 -141 3 -3 10 13 12 70 10 42 -2
72 -7 71 -13z m340 0 c-4 -13 -19 -15 -71 -13 -41 2 -67 8 -70 16 -3 9 16 12
72 12 64 0 74 -2 69 -15z m-223 -60 c0 -24 -5 -35 -15 -35 -10 0 -15 11 -15
35 0 24 5 35 15 35 10 0 15 -11 15 -35z m25 -200 l40 -34 -85 0 -85 -1 40 35
c22 19 42 34 45 34 3 1 23 -15 45 -34z"/>
<path d="M573 1808 c-20 -26 -26 -41 -15 -34 12 7 36 46 29 46 -3 0 -9 -6 -14
-12z"/>
<path d="M790 1375 c0 -148 1 -155 20 -155 19 0 20 7 20 155 0 148 -1 155 -20
155 -19 0 -20 -7 -20 -155z"/>
<path d="M1970 1415 c0 -157 20 -195 105 -195 85 0 105 38 105 195 l0 115 -25
0 -24 0 -3 -122 c-3 -120 -3 -122 -29 -137 -24 -13 -29 -13 -53 2 -26 17 -26
19 -26 137 l0 120 -25 0 -25 0 0 -115z"/>
<path d="M1350 855 l0 -155 85 0 c78 0 85 2 85 20 0 18 -7 20 -60 20 l-60 0 0
135 0 135 -25 0 -25 0 0 -155z"/>
<path d="M1143 533 c9 -2 23 -2 30 0 6 3 -1 5 -18 5 -16 0 -22 -2 -12 -5z"/>
<path d="M1208 523 c12 -2 30 -2 40 0 9 3 -1 5 -23 4 -22 0 -30 -2 -17 -4z"/>
<path d="M1538 523 c12 -2 30 -2 40 0 9 3 -1 5 -23 4 -22 0 -30 -2 -17 -4z"/>
<path d="M1333 513 c32 -2 81 -2 110 0 29 2 3 3 -58 3 -60 0 -84 -1 -52 -3z"/>
<path d="M1580 440 c-8 -5 -10 -10 -5 -10 6 0 17 5 25 10 8 5 11 10 5 10 -5 0
-17 -5 -25 -10z"/>
</g>
</svg>
